<svg width="16" height="16" viewBox="0 0 16 16" fill="none" xmlns="http://www.w3.org/2000/svg">
<g clip-path="url(#clip0_50_132)">
<path fill-rule="evenodd" clip-rule="evenodd" d="M15.8601 2.1765C15.7099 1.81852 15.3502 1.4926 14.7721 1.39085C13.8594 1.29835 12.3244 1.68038 10.7902 1.99982C10.2434 2.1136 9.0979 2.26345 9.0979 2.26345C8.20282 1.2191 7.1819 0.940361 6.53329 0.854642C6.16559 0.805924 5.9899 0.842308 5.83821 0.792665C5.70344 0.703863 5.29175 0.355437 4.52559 0.471373C4.52559 0.471373 3.81698 0.562334 3.26467 1.13708C3.15482 1.24716 2.95759 1.50432 2.86682 1.7735C2.72805 1.90023 2.61698 1.92798 2.30344 2.23169C0.334208 3.90321 1.13975 6.08473 1.45759 6.81087C-0.319946 8.1981 0.0677464 9.80579 0.0677464 9.80579L0.615439 9.7173C0.575131 16.8677 10.9151 17.3836 12.1579 11.9229C12.609 9.93961 12.9727 9.04511 14.7517 8.57983C15.1108 8.47962 15.2536 8.24158 15.2413 8.06274C15.1644 7.36126 13.6382 6.58733 11.3419 6.80686C11.2053 6.34898 11.1945 6.17261 11.1945 6.17261C12.3561 5.90836 13.9496 5.39189 15.0545 4.50571C15.9364 3.79869 16.2591 3.12989 15.8601 2.1765Z" fill="#F37937"/>
<path fill-rule="evenodd" clip-rule="evenodd" d="M13.2311 4.53038C12.1225 5.03698 10.8327 5.33885 10.5173 5.42457C10.0133 5.56117 10.0324 5.69375 10.1299 5.91267C10.3505 6.40602 10.4191 6.72053 10.5044 7.88051C11.2308 7.6619 12.5404 7.69365 13.709 7.97548C12.9813 8.26594 12.2225 8.76822 11.5816 9.61986C9.66128 12.1751 6.6099 11.9404 5.22959 10.6112C4.92836 10.8656 5.32098 11.7292 5.32098 11.7292C5.25913 11.7875 5.11175 11.7283 5.11175 11.7283C4.08744 10.0253 5.18252 9.57824 6.03636 9.53014C6.39667 9.46446 6.35113 9.68184 6.02005 9.74289C4.59421 10.0697 6.5619 11.711 8.99882 11.07C11.1477 10.5048 11.0185 9.13299 12.9357 8.06829C11.4013 7.77722 10.3265 8.16418 9.86805 8.40099C9.56313 8.55886 9.06129 8.56842 8.83759 8.4901C8.55451 9.35808 7.62744 9.60198 5.85605 9.1703C4.5979 8.86288 3.60005 10.1027 4.15359 11.6944C4.72067 13.3271 7.53636 14.9613 10.6161 13.0415C10.3647 13.3613 10.0517 13.6428 9.68375 13.8784C8.88682 14.3881 7.85544 14.6693 6.77759 14.6693H6.77729C5.24159 14.669 3.81544 14.1167 2.86559 13.1541C1.99605 12.2713 1.56313 11.1051 1.57975 9.6877C1.57975 9.43702 1.66744 8.88478 1.75236 8.71488L1.13113 8.75743C1.13113 8.75743 1.32836 7.85245 2.66959 7.0742C2.66929 7.07358 2.66929 7.07296 2.66898 7.07265L2.6659 7.0745L2.60805 6.95826C1.23359 4.33489 2.54036 3.29239 3.11175 2.8197C3.57729 2.43366 3.69636 2.44846 3.78098 2.11668C3.83113 1.92089 4.02959 1.71337 4.2779 1.58079C4.59421 1.38961 4.97759 1.36772 5.20344 1.53546C5.41698 1.74791 5.83205 1.79755 6.08559 1.79755C8.06129 1.86847 8.65513 3.31582 8.65513 3.31582C9.10405 3.17614 9.83852 3.1598 11.1004 2.9045C13.5213 2.36675 13.7001 2.35256 14.0927 2.31711C14.5459 2.2761 14.9222 2.30323 15.0819 2.68064C15.2397 3.05003 14.8157 3.51625 14.7056 3.62571C14.5604 3.7697 14.0207 4.16962 13.2311 4.53038ZM15.8601 2.1765C15.7099 1.81852 15.3502 1.4926 14.7721 1.39085C13.8594 1.29835 12.3244 1.68038 10.7902 1.99982C10.2434 2.1136 9.0979 2.26345 9.0979 2.26345C8.20282 1.2191 7.1819 0.940361 6.53329 0.854642C6.16559 0.805924 5.9899 0.842308 5.83821 0.792665C5.70344 0.703863 5.29175 0.355437 4.52559 0.471373C4.52559 0.471373 3.81698 0.562334 3.26467 1.13708C3.15482 1.24716 2.95759 1.50432 2.86682 1.7735C2.72805 1.90023 2.61698 1.92798 2.30344 2.23169C0.334208 3.90321 1.13975 6.08473 1.45759 6.81087C-0.319946 8.1981 0.0677464 9.80579 0.0677464 9.80579L0.615439 9.7173C0.575131 16.8677 10.9151 17.3836 12.1579 11.9229C12.609 9.93961 12.9727 9.04511 14.7517 8.57983C15.1108 8.47962 15.2536 8.24158 15.2413 8.06274C15.1644 7.36126 13.6382 6.58733 11.3419 6.80686C11.2053 6.34898 11.1945 6.17261 11.1945 6.17261C12.3561 5.90836 13.9496 5.39189 15.0545 4.50571C15.9364 3.79869 16.2591 3.12989 15.8601 2.1765Z" fill="#F37937"/>
<path fill-rule="evenodd" clip-rule="evenodd" d="M6.81743 4.10024C6.88235 4.0876 6.91866 4.06324 6.95958 4.00065C7.02635 3.89797 7.03928 3.72746 7.03835 3.60258C7.03681 3.44779 7.00574 3.24521 6.96143 3.10522C6.74666 3.22609 6.56297 3.22887 6.36697 3.10615C6.32235 3.26125 6.32389 3.43916 6.3682 3.59487C6.43435 3.82459 6.60543 4.14156 6.81743 4.10024Z" fill="#221F20"/>
<path fill-rule="evenodd" clip-rule="evenodd" d="M6.63376 3.02825C6.72699 3.06463 6.82114 3.06803 6.93438 3.01067C6.85899 2.75321 6.71684 2.4461 6.55684 2.44672C6.49099 2.44733 6.43591 2.47663 6.40114 2.52935C6.3553 2.59965 6.35191 2.70387 6.39253 2.80069C6.43468 2.89936 6.52699 2.98662 6.63376 3.02825Z" fill="#221F20"/>
<path fill-rule="evenodd" clip-rule="evenodd" d="M7.7339 3.43086C7.72159 3.45738 7.72497 3.48574 7.74251 3.50486C7.76036 3.52305 7.78682 3.5283 7.81267 3.51781C7.84005 3.50671 7.85513 3.49222 7.86467 3.46755C7.87297 3.4472 7.87759 3.41606 7.86221 3.37813C7.85974 3.37228 7.85697 3.36672 7.85297 3.36056C7.85297 3.36056 7.84805 3.35747 7.84528 3.35532C7.78651 3.37382 7.74928 3.3991 7.7339 3.43086Z" fill="#221F20"/>
<path fill-rule="evenodd" clip-rule="evenodd" d="M12.0693 4.41491C12.0693 4.41491 14.4963 2.71965 14.5849 2.84052C14.804 3.14054 13.5776 3.90245 12.0693 4.41491ZM7.40403 5.51323C6.41203 5.37879 5.76833 5.38557 6.4068 4.96253C6.4068 4.96253 7.8908 3.80594 9.56864 3.61477C11.124 3.41928 13.5951 2.86982 13.5951 2.86982C13.5951 2.86982 12.3779 3.61076 11.1819 4.44698C9.87326 5.23079 8.91818 5.54745 7.40403 5.51323ZM9.44095 8.22478C9.15664 8.30063 8.84218 8.11501 8.60895 7.77645C8.7271 7.85261 8.85356 7.87543 8.95818 7.82517C9.15664 7.72897 9.20095 7.40675 9.05541 7.1055C8.91018 6.80394 8.63203 6.63744 8.43326 6.73333C8.36218 6.76756 8.31172 6.83046 8.28126 6.91063C8.19849 6.31152 8.39387 5.79135 8.76833 5.69176C9.19418 5.57767 9.69049 6.05282 9.87664 6.75307C10.0622 7.45208 9.8671 8.11131 9.44095 8.22478ZM7.77787 8.90683C7.47633 9.00581 7.12187 8.80261 6.8628 8.42459C7.01664 8.54299 7.19018 8.58153 7.32187 8.50784C7.53141 8.3919 7.55972 8.04039 7.38403 7.72342C7.20895 7.40583 6.89664 7.24302 6.68772 7.35896C6.6108 7.40182 6.55849 7.47644 6.53172 7.56925C6.44895 7.01331 6.61572 6.52983 6.96433 6.41512C7.38403 6.27791 7.90587 6.72408 8.13049 7.4123C8.3548 8.10021 8.19726 8.76931 7.77787 8.90683ZM6.17018 2.81863C6.1228 2.68759 6.1471 2.53742 6.22249 2.42889C6.29387 2.32621 6.40557 2.26824 6.53726 2.26115C6.76249 2.24882 6.97356 2.46435 7.1348 2.89263C7.17049 2.8544 7.2071 2.80414 7.22803 2.75295L7.31541 2.7841C7.28095 2.86272 7.22495 2.9432 7.17018 2.98822C7.27633 3.27837 7.29972 3.73009 7.15941 4.0224C7.09418 4.15807 6.99849 4.24841 6.8751 4.29065C6.77541 4.32457 6.64772 4.31655 6.5468 4.25828C6.37418 4.15899 6.23726 3.96474 6.14864 3.6971C6.0631 3.43778 6.05264 3.10354 6.17018 2.81863ZM7.43695 2.94752C7.45356 2.91206 7.46403 2.89726 7.47756 2.89171C7.48156 2.89017 7.48618 2.88832 7.4911 2.88708C7.4788 2.93549 7.47787 2.94012 7.47572 2.97064C7.50372 2.96694 7.5188 2.9728 7.52526 2.98945C7.53572 3.0135 7.52772 3.05883 7.50833 3.08966C7.50033 3.10292 7.49172 3.11001 7.47787 3.11618C7.44341 3.13067 7.42433 3.13191 7.4191 3.11834C7.40403 3.08288 7.41264 2.99994 7.43695 2.94752ZM7.58341 3.28176C7.58556 3.22102 7.59018 3.14609 7.60526 3.1023L7.70741 3.0283L7.71572 3.02244L7.71726 3.03262C7.7231 3.06006 7.73633 3.08442 7.75695 3.10261L7.78895 3.12851L7.87695 3.20344C7.91326 3.23767 7.9351 3.26418 7.94095 3.2833L7.95233 3.32123L7.95572 3.3388C7.9708 3.42575 7.92803 3.51117 7.8468 3.55618C7.80956 3.57746 7.76556 3.57592 7.73849 3.56543C7.71726 3.55742 7.69079 3.53491 7.68064 3.50407C7.66495 3.45751 7.6871 3.36625 7.81449 3.31784C7.81449 3.31784 7.81972 3.31568 7.82618 3.31352C7.82095 3.31013 7.81572 3.30674 7.81572 3.30674C7.77756 3.28022 7.70649 3.22163 7.67941 3.17754C7.67941 3.17754 7.67603 3.17168 7.67233 3.16582C7.67018 3.1723 7.66803 3.17877 7.66803 3.17877C7.66249 3.19727 7.65757 3.22194 7.65387 3.2537L7.64618 3.36316L7.64433 3.39276L7.63787 3.49513L7.62187 3.60829C7.59141 3.74427 7.53756 3.8266 7.45664 3.8599L7.44618 3.86422L7.4668 3.75167L7.46926 3.75013C7.53357 3.71035 7.55418 3.61816 7.5671 3.48311L7.58341 3.28176ZM4.1271 2.35982C4.37449 1.43942 5.09695 1.99382 5.09695 1.99382L4.1271 2.35982ZM15.0819 2.68049C14.9222 2.30308 14.5462 2.27626 14.0926 2.31696C13.7003 2.35242 13.5216 2.3666 11.1006 2.90435C9.83849 3.15996 9.10403 3.176 8.6551 3.31599C8.6551 3.31599 8.06156 1.86863 6.08587 1.79771C5.83203 1.79771 5.41695 1.74776 5.20341 1.53562C4.97757 1.36788 4.59418 1.38978 4.27818 1.58095C4.02987 1.71323 3.83141 1.92105 3.78126 2.11685C3.69664 2.44831 3.57726 2.43351 3.11172 2.81956C2.54064 3.29224 1.23357 4.33475 2.60803 6.95842L2.47664 6.69602C2.47664 6.69602 3.48556 6.57978 4.5388 6.08458L2.66895 7.07282C2.66926 7.07313 2.66926 7.07343 2.66987 7.07405C1.32864 7.8523 1.1311 8.75729 1.1311 8.75729L1.75264 8.71504C1.66772 8.88494 1.57972 9.43687 1.57972 9.68755C1.5631 11.1053 1.99603 12.2715 2.86587 13.1542C3.81572 14.1169 5.24187 14.6688 6.77757 14.6691H6.77787C7.85572 14.6691 8.8868 14.3882 9.68372 13.8785C10.0517 13.643 10.3646 13.3611 10.616 13.0417C7.53664 14.9611 4.72064 13.3269 4.15356 11.6945C3.60033 10.1029 4.59818 8.86274 5.85633 9.17016C7.62741 9.60183 8.55449 9.35824 8.83756 8.49026C9.06156 8.56858 9.5631 8.55871 9.86833 8.40084C10.3265 8.16404 11.4013 7.77707 12.9357 8.06845C11.0185 9.13315 11.1477 10.505 8.9991 11.0698C6.56218 11.7112 4.59418 10.0696 6.02033 9.74275C6.3511 9.68169 6.39664 9.46462 6.03664 9.5303C5.1828 9.57809 4.08741 10.0252 5.11172 11.7282C5.11172 11.7282 5.2591 11.7874 5.32126 11.7294C5.32126 11.7294 4.92833 10.8654 5.22987 10.611C6.61018 11.9406 9.66156 12.1749 11.5816 9.62003C12.2225 8.76808 12.9816 8.26579 13.7089 7.97533C12.5403 7.69382 11.2308 7.66206 10.5043 7.88067C10.4194 6.72038 10.3505 6.40618 10.1299 5.91253C10.0326 5.69391 10.0133 5.56133 10.5173 5.42442C10.8326 5.33871 12.1228 5.03684 13.2311 4.53023C14.0209 4.16947 14.5606 3.76956 14.7056 3.62556C14.816 3.51641 15.24 3.0502 15.0819 2.68049Z" fill="#221F20"/>
<path fill-rule="evenodd" clip-rule="evenodd" d="M4.12695 2.35965L5.0968 1.99365C5.0968 1.99365 4.37465 1.43956 4.12695 2.35965Z" fill="#F37937"/>
<path fill-rule="evenodd" clip-rule="evenodd" d="M9.56849 3.61486C7.89064 3.80603 6.40664 4.96262 6.40664 4.96262C5.76818 5.38566 6.41187 5.37888 7.40387 5.51331C8.91803 5.54723 9.8731 5.23087 11.1817 4.44676C12.3777 3.61054 13.5949 2.8699 13.5949 2.8699C13.5949 2.8699 11.1239 3.41937 9.56849 3.61486Z" fill="#F37937"/>
<path fill-rule="evenodd" clip-rule="evenodd" d="M12.0691 4.41491C13.5774 3.90245 14.8039 3.14054 14.5848 2.84052C14.4962 2.71965 12.0691 4.41491 12.0691 4.41491Z" fill="#F37937"/>
<path fill-rule="evenodd" clip-rule="evenodd" d="M2.47656 6.69585L2.60795 6.95825L2.66579 7.07418L2.66887 7.07264L4.53872 6.08472C3.48518 6.57991 2.47656 6.69585 2.47656 6.69585Z" fill="#FEFEFE"/>
<path fill-rule="evenodd" clip-rule="evenodd" d="M6.96427 6.4152C6.61565 6.5299 6.44888 7.01338 6.53165 7.56901C6.55842 7.4762 6.61073 7.40158 6.68765 7.35903C6.89658 7.24309 7.20888 7.4059 7.38396 7.72318C7.55965 8.04047 7.53134 8.39197 7.32181 8.50791C7.18981 8.5813 7.01657 8.54275 6.86273 8.42466C7.12181 8.80269 7.47627 9.00557 7.77781 8.9069C8.19719 8.76938 8.35473 8.10028 8.13042 7.41237C7.90581 6.72416 7.38396 6.27768 6.96427 6.4152Z" fill="#FEFEFE"/>
<path fill-rule="evenodd" clip-rule="evenodd" d="M8.76836 5.69161C8.39359 5.79121 8.19851 6.31169 8.28128 6.91049C8.31174 6.83032 8.3622 6.76742 8.43297 6.73319C8.63205 6.6376 8.9102 6.8038 9.05543 7.10536C9.20067 7.40661 9.15667 7.72882 8.9579 7.82503C8.85328 7.87529 8.72682 7.85278 8.60897 7.77662C8.8419 8.11487 9.15667 8.30049 9.44097 8.22495C9.86682 8.11148 10.0619 7.45224 9.87667 6.75292C9.6902 6.05268 9.1942 5.57783 8.76836 5.69161Z" fill="#FEFEFE"/>
<path fill-rule="evenodd" clip-rule="evenodd" d="M6.36692 3.10611C6.56292 3.22883 6.74631 3.22636 6.96139 3.10518C7.00569 3.24548 7.03677 3.44775 7.03831 3.60254C7.03892 3.72742 7.02631 3.89793 6.95954 4.00061C6.91862 4.0632 6.88231 4.08756 6.81739 4.1002C6.60508 4.14152 6.43431 3.82485 6.36816 3.59483C6.32354 3.43943 6.322 3.2612 6.36692 3.10611ZM6.40108 2.52951C6.43616 2.47648 6.49092 2.44718 6.55677 2.44687C6.71708 2.44626 6.85923 2.75306 6.93431 3.01083C6.82139 3.06818 6.72692 3.06479 6.63369 3.0281C6.52692 2.98647 6.43462 2.89952 6.39246 2.80054C6.35185 2.70403 6.35523 2.59981 6.40108 2.52951ZM6.54662 4.25807C6.64754 4.31666 6.77523 4.32467 6.87492 4.29045C6.99831 4.2482 7.094 4.15817 7.15923 4.02219C7.29954 3.72988 7.27615 3.27847 7.17 2.98801C7.22477 2.943 7.28077 2.86283 7.31523 2.7842L7.22785 2.75306C7.20692 2.80424 7.17031 2.8545 7.13462 2.89243C6.97339 2.46445 6.76231 2.24892 6.53708 2.26094C6.40539 2.26834 6.29369 2.32631 6.22231 2.42899C6.14692 2.53753 6.12262 2.68769 6.17 2.81873C6.05277 3.10364 6.06323 3.43788 6.14846 3.6972C6.23708 3.96484 6.374 4.15909 6.54662 4.25807Z" fill="#F37937"/>
<path fill-rule="evenodd" clip-rule="evenodd" d="M7.47787 3.11606C7.49171 3.10989 7.50033 3.10311 7.50833 3.08985C7.52771 3.05871 7.53541 3.01338 7.52525 2.98933C7.51879 2.97299 7.50371 2.96682 7.47571 2.97052C7.47787 2.94031 7.47879 2.93537 7.4911 2.88696C7.48617 2.8882 7.48156 2.89035 7.47756 2.89159C7.46402 2.89714 7.45356 2.91225 7.43694 2.94771C7.41264 2.99982 7.40402 3.08276 7.4191 3.11822C7.42433 3.13209 7.44341 3.13086 7.47787 3.11606Z" fill="#F37937"/>
<path fill-rule="evenodd" clip-rule="evenodd" d="M7.85281 3.36068C7.85712 3.36654 7.85958 3.3724 7.86204 3.37826C7.87743 3.41587 7.87281 3.44732 7.86451 3.46768C7.85497 3.49234 7.83989 3.50683 7.81251 3.51794C7.78666 3.52842 7.7602 3.52318 7.74266 3.50468C7.72481 3.48556 7.72143 3.4575 7.73374 3.43098C7.74912 3.39922 7.78635 3.37394 7.84512 3.35544C7.84789 3.3576 7.85281 3.36068 7.85281 3.36068ZM7.46912 3.75012L7.46666 3.75166L7.44604 3.8642L7.45651 3.85989C7.53743 3.82658 7.59128 3.74426 7.62174 3.60828L7.63774 3.49512L7.6442 3.39275L7.64604 3.36315L7.65404 3.25369C7.65743 3.22193 7.66235 3.19726 7.66789 3.17876C7.66789 3.17876 7.67004 3.17228 7.6722 3.16581C7.67589 3.17167 7.67928 3.17753 7.67928 3.17753C7.70635 3.22162 7.77743 3.2802 7.81558 3.30672C7.81558 3.30672 7.82081 3.31011 7.82604 3.3135C7.81958 3.31566 7.81435 3.31782 7.81435 3.31782C7.68697 3.36623 7.66481 3.4575 7.68051 3.50406C7.69066 3.5352 7.71712 3.5574 7.73835 3.56542C7.76543 3.5759 7.80943 3.57744 7.84666 3.55617C7.92789 3.51115 7.97066 3.42605 7.95558 3.33879L7.9522 3.32121L7.94081 3.28329C7.93497 3.26417 7.91312 3.23765 7.87681 3.20343L7.78881 3.1285L7.75681 3.1026C7.7362 3.08441 7.72297 3.06005 7.71712 3.03261L7.71558 3.02243L7.70728 3.02829L7.60512 3.10229C7.59005 3.14608 7.58543 3.221 7.58328 3.28175L7.56697 3.48309C7.55405 3.61815 7.53343 3.71034 7.46912 3.75012Z" fill="#F37937"/>
</g>
<defs>
<clipPath id="clip0_50_132">
<rect width="16" height="16" fill="white"/>
</clipPath>
</defs>
</svg>
