<svg width="16" height="16" viewBox="0 0 16 16" fill="none" xmlns="http://www.w3.org/2000/svg">
<path fill-rule="evenodd" clip-rule="evenodd" d="M2.78736 5.21388L2.78402 5.69379H0.888672L1.58746 6.57212H3.61989L3.62156 6.22528C3.62156 4.30312 3.80462 3.08253 5.82618 2.86461V2.60968C3.64371 2.61509 2.78903 3.33912 2.78736 5.21388Z" fill="#CD1041"/>
<path fill-rule="evenodd" clip-rule="evenodd" d="M9.3291 8.58024V12.8093C9.3291 13.0268 9.37884 13.2401 9.97565 13.2401H10.2761V13.2052V8.97574C10.2761 8.11114 11.4798 7.78052 11.4798 7.78052C11.4798 7.78052 11.1835 7.66532 10.8851 7.45239L10.3652 7.59878C10.3543 7.60211 9.3291 7.89904 9.3291 8.58024Z" fill="#CD1041"/>
<path fill-rule="evenodd" clip-rule="evenodd" d="M14.4546 0.53244V5.69384H13.0474L13.8001 6.63122H15.354V1.47647L14.4546 0.53244Z" fill="#CD1041"/>
<path fill-rule="evenodd" clip-rule="evenodd" d="M9.3291 6.12091C9.3291 6.64491 10.0923 7.05621 10.3861 7.16975L10.6728 7.2812C10.4538 7.08075 10.2761 6.82374 10.2761 6.51849V2.92119L10.4458 2.932C10.9582 2.932 11.4418 3.10542 11.8455 3.39819C11.3059 2.89998 10.4571 2.63257 9.3291 2.62259V6.12091Z" fill="#CD1041"/>
<path fill-rule="evenodd" clip-rule="evenodd" d="M0.936035 5.24187H2.34323C2.34323 5.22856 2.3449 5.21733 2.3449 5.20694C2.3449 5.17283 2.34239 5.15994 2.33445 5.19113C2.33445 3.09097 3.41816 2.15443 5.84847 2.15443H6.28103V6.12102C6.28103 6.76979 5.84095 7.15239 5.48695 7.36989C5.84262 7.56993 6.28103 7.92966 6.28103 8.58008V12.7721C6.28103 13.3397 5.87522 13.692 5.22156 13.692H4.49602V15.4753H10.6573V13.692H9.9756C9.06533 13.692 8.87433 13.2121 8.87433 12.8091V8.58008C8.87433 7.93132 9.38631 7.56369 9.78711 7.36199C9.39091 7.12868 8.87433 6.72446 8.87433 6.12102V2.38108L9.04318 2.16358H9.27096C11.6252 2.16358 12.9764 3.22738 12.9764 5.08384C12.9764 5.08384 12.9756 5.16576 12.9739 5.24187H13.9999V0.500916H0.936035V5.24187Z" fill="#FEFEFE"/>
<path fill-rule="evenodd" clip-rule="evenodd" d="M14.0025 5.23162H12.9762C12.9779 5.15556 12.9788 5.07368 12.9788 5.07368C12.9788 3.21834 11.6273 2.15518 9.27308 2.15518H9.04526L8.87597 2.37255V6.11024C8.87597 6.71331 9.39305 7.11729 9.78891 7.35046C9.38803 7.55204 8.87597 7.91945 8.87597 8.56782V12.7943C8.87597 13.197 9.067 13.6767 9.97743 13.6767H10.6592V15.4588H4.49687V13.6767H5.22254C5.87673 13.6767 6.2822 13.3246 6.2822 12.7573V8.56782C6.2822 7.91778 5.84371 7.55827 5.48798 7.35836C5.84245 7.14099 6.2822 6.75861 6.2822 6.11024V2.14603H5.84956C3.41924 2.14603 2.33491 3.08202 2.33491 5.18091C2.34285 5.14974 2.34536 5.16262 2.34536 5.1967C2.34536 5.20709 2.34369 5.21832 2.34369 5.23162H0.936243V0.493518H14.0025V5.23162ZM14.4573 0.525105V0.0413208H0.481445V5.6834H0.889007H2.78469L2.78804 5.20377C2.78971 3.32973 3.64454 2.60654 5.8274 2.60114V2.85592V6.11024C5.8274 6.83135 4.92199 7.15345 4.91154 7.15553L4.23896 7.38911L4.92283 7.58695C4.96128 7.59734 5.8274 7.85586 5.8274 8.56782V12.7573C5.8274 12.8733 5.8274 13.2249 5.22254 13.2249H4.04291V15.911H4.47806H11.114V13.7407V13.2249H10.278H9.97743C9.38051 13.2249 9.33076 13.0121 9.33076 12.7943V8.56782C9.33076 7.88744 10.3561 7.59069 10.367 7.58695L10.887 7.44106L11.0191 7.40366L10.6747 7.26983L10.3883 7.15844C10.0941 7.04498 9.33076 6.63393 9.33076 6.11024V2.61402C10.459 2.624 11.3084 2.89124 11.848 3.38874C12.2903 3.79813 12.524 4.36255 12.524 5.0716L12.5181 5.6834H13.0498H14.4573V0.525105Z" fill="#004685"/>
</svg>
